name GIL06_free2.mot
datacolumns 153
datarows 4
range 0.89999998 0.92499995
endheader

                time	           pelvis_tx	           pelvis_ty	           pelvis_tz	         pelvis_tilt	         pelvis_list	     pelvis_rotation	       hip_flexion_r	     hip_adduction_r	      hip_rotation_r	        knee_angle_r	       ankle_angle_r	    subtalar_angle_r	         mtp_angle_r	       hip_flexion_l	     hip_adduction_l	      hip_rotation_l	        knee_angle_l	       ankle_angle_l	    subtalar_angle_l	         mtp_angle_l	    lumbar_extension	      lumbar_bending	     lumbar_rotation	     ground_force_vx	     ground_force_vy	     ground_force_vz	     ground_force_px	     ground_force_py	     ground_force_pz	     ground_force_vx	     ground_force_vy	     ground_force_vz	     ground_force_px	     ground_force_py	     ground_force_pz	     ground_torque_x	     ground_torque_y	     ground_torque_z	     ground_torque_x	     ground_torque_y	     ground_torque_z	    ground_marker_px	    ground_marker_py	    ground_marker_pz	    ground_marker_px	    ground_marker_py	    ground_marker_pz	    ground_marker_px	    ground_marker_py	    ground_marker_pz	    ground_marker_px	    ground_marker_py	    ground_marker_pz	    ground_marker_px	    ground_marker_py	    ground_marker_pz	    ground_marker_px	    ground_marker_py	    ground_marker_pz	    ground_marker_px	    ground_marker_py	    ground_marker_pz	    ground_marker_px	    ground_marker_py	    ground_marker_pz	    ground_marker_px	    ground_marker_py	    ground_marker_pz	    ground_marker_px	    ground_marker_py	    ground_marker_pz	    ground_marker_px	    ground_marker_py	    ground_marker_pz	    ground_marker_px	    ground_marker_py	    ground_marker_pz	    ground_marker_px	    ground_marker_py	    ground_marker_pz	    ground_marker_px	    ground_marker_py	    ground_marker_pz	    ground_marker_px	    ground_marker_py	    ground_marker_pz	    ground_marker_px	    ground_marker_py	    ground_marker_pz	    ground_marker_px	    ground_marker_py	    ground_marker_pz	    ground_marker_px	    ground_marker_py	    ground_marker_pz	    ground_marker_px	    ground_marker_py	    ground_marker_pz	    ground_marker_px	    ground_marker_py	    ground_marker_pz	    ground_marker_px	    ground_marker_py	    ground_marker_pz	    ground_marker_px	    ground_marker_py	    ground_marker_pz	    ground_marker_px	    ground_marker_py	    ground_marker_pz	    ground_marker_px	    ground_marker_py	    ground_marker_pz	    ground_marker_px	    ground_marker_py	    ground_marker_pz	    ground_marker_px	    ground_marker_py	    ground_marker_pz	    ground_marker_px	    ground_marker_py	    ground_marker_pz	    ground_marker_px	    ground_marker_py	    ground_marker_pz	    ground_marker_px	    ground_marker_py	    ground_marker_pz	    ground_marker_px	    ground_marker_py	    ground_marker_pz	    ground_marker_px	    ground_marker_py	    ground_marker_pz	    ground_marker_px	    ground_marker_py	    ground_marker_pz	    ground_marker_px	    ground_marker_py	    ground_marker_pz	    ground_marker_px	    ground_marker_py	    ground_marker_pz	    ground_marker_px	    ground_marker_py	    ground_marker_pz	    ground_marker_px	    ground_marker_py	    ground_marker_pz	    ground_marker_px	    ground_marker_py	    ground_marker_pz	
          0.89999998	          0.99169850	          0.85654306	         -0.22967696	         -2.53929234	         -0.39770594	         -2.31195498	          2.36506844	          5.76025677	          1.81212854	         -9.62134457	          5.71735525	          0.00000000	          0.00000000	         28.90980148	         -6.34757137	          0.97525305	        -49.77376175	          5.47078133	          0.00000000	          0.00000000	         -7.79916096	          2.44767261	          5.94823122	        -15.90757558	        701.57755049	        -26.11295149	          0.88926910	          0.00000000	         -0.19924933	          0.00000000	          0.00000000	          0.00000000	          0.41071719	          0.00000000	         -0.28555157	          0.00000000	          3.61727393	          0.00000000	          0.00000000	          0.00000000	          0.00000000	          0.88569808	          0.77747357	         -0.23332822	          0.86320359	          0.78203648	         -0.15533915	          0.86900973	          0.77941561	         -0.31083786	          0.86340374	          0.41785762	         -0.18590406	          1.04283345	          0.43108201	         -0.34168789	          0.80326319	          0.06233408	         -0.19894645	          0.90233356	          0.10139330	         -0.30502677	          0.99169850	          0.85654306	         -0.22967696	          0.98713499	          0.85860306	         -0.10745692	          0.99626207	          0.85448307	         -0.35189700	          0.74646831	          0.92176926	         -0.21001685	          0.74638474	          0.91843212	         -0.26425970	          0.86298740	          0.41187763	         -0.11465579	          1.04306686	          0.43750522	         -0.41289845	          0.85373741	          0.42904103	         -0.25512087	          1.05920792	          0.41496444	         -0.25869977	          0.80032957	          0.06142246	         -0.16056918	          0.88544309	          0.10463720	         -0.34058568	          0.80401480	          0.07247882	         -0.23536603	          0.90714002	          0.12138383	         -0.26546422	          0.78238744	          1.34712601	         -0.23985593	          0.91216105	          1.28268421	         -0.20931353	          0.90741211	          1.28622246	         -0.29153836	          0.89227521	          1.27908874	         -0.26146770	          0.94575149	          1.20674288	         -0.26684245	          1.01924264	          0.56094509	         -0.09131205	          1.12660301	          0.67843896	         -0.32330972	          0.98349869	          0.58704478	         -0.11232714	          1.07921481	          0.66997659	         -0.33342755	          0.95593399	          0.51620954	         -0.12568235	          1.09920919	          0.59908187	         -0.33618295	          0.91228950	          0.18953043	         -0.18078426	          0.91902834	          0.19807722	         -0.41887262	          0.86496335	          0.20304364	         -0.18456295	          0.92794222	          0.21328901	         -0.37379697	          0.91290551	          0.04342841	         -0.19764683	          0.99060631	          0.06314935	         -0.32577479	
          0.90833330	          0.99973601	          0.85588413	         -0.22883609	         -2.56085682	         -0.11954508	         -2.59316945	          1.61343193	          5.57640314	          2.24815273	         -9.28674603	          5.92554331	          0.00000000	          0.00000000	         29.38676071	         -6.00488424	          0.70605481	        -47.18109512	          5.73381853	          0.00000000	          0.00000000	         -7.85772467	          1.87987494	          6.48995829	        -13.00775149	        705.99714416	        -26.20148077	          0.89260242	          0.00000000	         -0.19990216	          0.00000000	          0.00000000	          0.00000000	          0.41399194	          0.00000000	         -0.28459409	          0.00000000	          4.04995972	          0.00000000	          0.00000000	          0.00000000	          0.00000000	          0.89373416	          0.77683496	         -0.23335052	          0.87077385	          0.78116727	         -0.15552543	          0.87750739	          0.77908313	         -0.31099483	          0.86621755	          0.41736352	         -0.18636361	          1.05419540	          0.43223897	         -0.33956528	          0.80358773	          0.06259335	         -0.19926058	          0.93097228	          0.09542662	         -0.30442104	          0.99973601	          0.85588413	         -0.22883609	          0.99443734	          0.85752422	         -0.10649669	          1.00503469	          0.85424405	         -0.35117549	          0.75450814	          0.92114532	         -0.21093896	          0.75475305	          0.91791612	         -0.26511830	          0.86582637	          0.41132939	         -0.11511975	          1.05468690	          0.43835723	         -0.41080132	          0.85605204	          0.43047437	         -0.25707516	          1.06977940	          0.41612992	         -0.25702420	          0.80062181	          0.06172185	         -0.16088487	          0.91361213	          0.09808611	         -0.33980182	          0.80510032	          0.07152611	         -0.23569779	          0.93431628	          0.11561451	         -0.26465517	          0.79142070	          1.34679019	         -0.23972815	          0.92107242	          1.28250051	         -0.20907389	          0.91591656	          1.28566480	         -0.29125634	          0.90095729	          1.27857280	         -0.26145622	          0.95432055	          1.20627129	         -0.26640543	          1.02397788	          0.55909014	         -0.09185006	          1.13556468	          0.67995763	         -0.32192433	          0.98873246	          0.58563858	         -0.11334867	          1.08843935	          0.67106473	         -0.33252290	          0.95934045	          0.51487005	         -0.12702422	          1.10906768	          0.60022825	         -0.33480886	          0.91351533	          0.18877277	         -0.18108898	          0.94168389	          0.19377799	         -0.41762272	          0.86557609	          0.20206583	         -0.18555789	          0.94973177	          0.20952582	         -0.37233394	          0.91296118	          0.04332944	         -0.19774623	          1.02109134	          0.06231764	         -0.32596499	
          0.91666663	          1.00775051	          0.85506904	         -0.22810607	         -2.61186886	          0.17892605	         -2.92153072	          0.94263649	          5.35257864	          2.75444770	         -9.03765202	          6.14835787	          0.00000000	          0.00000000	         29.80131531	         -5.63746309	          0.41223860	        -44.44305038	          5.83893633	          0.00000000	          0.00000000	         -7.95892668	          1.52980959	          6.43860054	        -10.15714841	        711.13130625	        -26.09485283	          0.89598578	          0.00000000	         -0.20059729	          0.00000000	          0.00000000	          0.00000000	          0.41728516	          0.00000000	         -0.28369650	          0.00000000	          4.47407666	          0.00000000	          0.00000000	          0.00000000	          0.00000000	          0.90170586	          0.77605462	         -0.23365515	          0.87822264	          0.78020591	         -0.15595092	          0.88602072	          0.77867454	         -0.31137702	          0.86924255	          0.41683042	         -0.18689594	          1.06496811	          0.43307650	         -0.33735937	          0.80392599	          0.06286593	         -0.19957569	          0.95968574	          0.09000238	         -0.30396676	          1.00775051	          0.85506904	         -0.22810607	          1.00160038	          0.85627681	         -0.10552630	          1.01390052	          0.85386127	         -0.35068583	          0.76257932	          0.92052943	         -0.21194683	          0.76319480	          0.91735166	         -0.26609606	          0.86891389	          0.41077155	         -0.11565387	          1.06578708	          0.43885809	         -0.40862054	          0.85751933	          0.43357408	         -0.25974500	          1.07966316	          0.41692266	         -0.25587997	          0.80093396	          0.06204337	         -0.16120096	          0.94186586	          0.09204550	         -0.33915949	          0.80606085	          0.07100961	         -0.23605131	          0.96310502	          0.10950319	         -0.26422307	          0.80013764	          1.34657121	         -0.23996928	          0.92930651	          1.28201282	         -0.20847158	          0.92469436	          1.28499758	         -0.29097360	          0.90965837	          1.27794755	         -0.26138672	          0.96270025	          1.20554674	         -0.26552999	          1.02888691	          0.55728304	         -0.09257101	          1.14431822	          0.68099409	         -0.32051724	          0.99402332	          0.58412993	         -0.11413546	          1.09724772	          0.67183393	         -0.33193412	          0.96255976	          0.51359534	         -0.12874147	          1.11856723	          0.60104048	         -0.33366492	          0.91483748	          0.18799871	         -0.18143120	          0.96418607	          0.18971370	         -0.41642180	          0.86675686	          0.20138778	         -0.18644083	          0.97232980	          0.20530595	         -0.37089300	          0.91299373	          0.04321622	         -0.19785014	          1.05128753	          0.06196510	         -0.32628757	
          0.92499995	          1.01576650	          0.85411423	         -0.22749752	         -2.68821812	          0.48705357	         -3.28173256	          0.34966564	          5.09588385	          3.28997874	         -8.88294411	          6.40255022	          0.00000000	          0.00000000	         30.15515137	         -5.25105667	          0.12010612	        -41.58611679	          5.79029989	          0.00000000	          0.00000000	         -8.06947613	          1.52433693	          6.67670012	         -7.43478011	        717.58646380	        -25.71075818	          0.89935742	          0.00000000	         -0.20133548	          0.00000000	          0.00000000	          0.00000000	          0.42061819	          0.00000000	         -0.28279553	          0.00000000	          4.90203906	          0.00000000	          0.00000000	          0.00000000	          0.00000000	          0.90963697	          0.77517784	         -0.23424748	          0.88560379	          0.77917039	         -0.15657936	          0.89455658	          0.77818900	         -0.31194764	          0.87252522	          0.41629428	         -0.18746428	          1.07519233	          0.43356836	         -0.33509457	          0.80424541	          0.06315155	         -0.19987234	          0.98835003	          0.08518072	         -0.30363375	          1.01576650	          0.85411423	         -0.22749752	          1.00868416	          0.85489058	         -0.10459027	          1.02284884	          0.85333788	         -0.35040477	          0.77070367	          0.91991132	         -0.21304527	          0.77169764	          0.91675258	         -0.26717541	          0.87226713	          0.41024002	         -0.11622152	          1.07641029	          0.43899459	         -0.40637797	          0.86111486	          0.43458584	         -0.26170424	          1.09035599	          0.41747859	         -0.25392359	          0.80124021	          0.06238426	         -0.16149749	          0.97009140	          0.08657147	         -0.33863291	          0.80589497	          0.07178713	         -0.23637627	          0.99233299	          0.10369808	         -0.26390174	          0.80886447	          1.34620392	         -0.24013326	          0.93781090	          1.28090000	         -0.20841205	          0.93346566	          1.28427386	         -0.29129204	          0.91838837	          1.27722871	         -0.26128876	          0.97106862	          1.20455003	         -0.26587737	          1.03397393	          0.55550826	         -0.09338259	          1.15287459	          0.68153524	         -0.31906232	          0.99933368	          0.58244115	         -0.11501856	          1.10582995	          0.67224878	         -0.33081326	          0.96703643	          0.51248640	         -0.13008410	          1.12787867	          0.60173130	         -0.33212784	          0.91624522	          0.18721400	         -0.18180193	          0.98648477	          0.18590684	         -0.41527539	          0.86825907	          0.20124739	         -0.18642320	          0.99508822	          0.20102704	         -0.36932489	          0.91301554	          0.04309202	         -0.19795543	          1.08107483	          0.06210012	         -0.32672247	
